<?xml version="1.0" encoding="UTF-8"?>
<svg id="Capa_1" data-name="Capa 1" xmlns="http://www.w3.org/2000/svg" viewBox="0 0 126.58 32.06">
  <defs>
    <style>
      .cls-1 {
        fill: #fff;
      }
    </style>
  </defs>
  <path class="cls-1" d="M67.29,21.28c-.11-.09-.27-.07-.35.05-1.38,1.96-3.5,3.22-5.89,3.22-4.15,0-7.52-3.82-7.52-8.52s3.37-8.52,7.52-8.52c2.38,0,4.51,1.26,5.88,3.21.08.11.24.14.35.05l5.73-4.83c.1-.08.11-.24.03-.33-2.89-3.43-7.19-5.61-11.99-5.61-8.71,0-15.78,7.18-15.78,16.03s7.07,16.03,15.78,16.03c4.8,0,9.1-2.18,12-5.62.08-.1.07-.25-.03-.33l-5.73-4.83Z"/>
  <path class="cls-1" d="M43.77.63v7.18c0,.13-.11.24-.24.24h-5.89c-.11,0-.2-.07-.23-.18-.7-2.81-2.3-5.27-4.49-7.05-.17-.14-.08-.42.15-.42h10.46c.13,0,.24.11.24.24"/>
  <path class="cls-1" d="M35.27,11.05C35.27,5.16,30.5.39,24.61.39h-7.08c-.13,0-.24.11-.24.24v7.18c0,.13.11.24.24.24h9.04c.13,0,.24.11.24.24v23.1c0,.13.11.24.24.24h7.99c.13,0,.24-.11.24-.24V11.05Z"/>
  <path class="cls-1" d="M19.62,31.62h-8.1c-6.36,0-11.51-5.15-11.51-11.51V.64c0-.13.11-.24.24-.24h7.99c.13,0,.24.11.24.24v23.1c0,.13.11.24.24.24h10.91c.13,0,.24.11.24.24v7.18c0,.13-.11.24-.24.24"/>
  <path class="cls-1" d="M81.57.4h1.04v7.72h-1.04V.4ZM82.4,7.19h3.53v.93h-3.53v-.93Z"/>
  <path class="cls-1" d="M86.63,8.12l2.78-7.72h1.76l2.87,7.72h-1.07l-2.59-7.05.51.25h-1.25l.54-.25-2.51,7.05h-1.04ZM88.29,5.82l.35-.93h3.33l.35.93h-4.03Z"/>
  <path class="cls-1" d="M94.01.4h5.73v.93h-5.73V.4ZM96.36,1.12h1.04v7h-1.04V1.12Z"/>
  <path class="cls-1" d="M99.73,8.12l2.78-7.72h1.76l2.87,7.72h-1.07l-2.59-7.05.51.25h-1.25l.54-.25-2.51,7.05h-1.04ZM101.39,5.82l.35-.93h3.33l.35.93h-4.03Z"/>
  <polygon class="cls-1" points="108.55 8.12 108.55 .4 109.92 .4 112.21 5.55 112.38 5.55 114.65 .4 116.04 .4 116.04 8.12 115 8.12 115 1.53 115.08 1.55 112.89 6.52 111.62 6.52 109.42 1.55 109.5 1.53 109.5 8.12 108.55 8.12"/>
  <path class="cls-1" d="M81.57,11.97h5.73v.93h-5.73v-.93ZM83.92,12.69h1.04v7h-1.04v-7Z"/>
  <path class="cls-1" d="M88.7,11.93h1.04v7.76h-1.04v-7.76ZM89.35,16.9v-.92h2.07c.32,0,.6-.07.84-.2.23-.13.41-.32.54-.56.13-.24.19-.51.19-.81s-.06-.57-.19-.81c-.13-.24-.31-.42-.54-.56-.23-.14-.51-.21-.84-.21h-2.07v-.91h1.88c.56,0,1.06.08,1.48.25.42.17.75.43.98.78.23.35.35.81.35,1.36v.17c0,.56-.12,1.01-.35,1.36-.24.35-.56.61-.98.78s-.91.25-1.48.25h-1.88ZM93.47,19.69l-2.56-3.44h1.22l2.6,3.44h-1.26Z"/>
  <path class="cls-1" d="M95.28,19.69l1.86-7.72h1.18l1.92,7.72h-.72l-1.74-7.05.34.25h-.84l.36-.25-1.68,7.05h-.69ZM96.39,17.39l.23-.93h2.23l.23.93h-2.7Z"/>
  <path class="cls-1" d="M104.1,11.93h1.04v7.81h-1.04v-7.81ZM104.93,19.73v-.95h1.93c.47,0,.88-.08,1.24-.23.36-.15.67-.36.93-.63.26-.27.45-.58.59-.94.13-.36.2-.75.2-1.16,0-.44-.07-.83-.2-1.19-.13-.36-.33-.67-.59-.93-.26-.26-.57-.47-.93-.61-.36-.14-.78-.21-1.24-.21h-1.93v-.95h1.82c.7,0,1.3.11,1.82.32.51.21.94.5,1.29.87.34.36.6.77.77,1.22.17.45.25.9.25,1.37v.23c0,.45-.09.9-.25,1.35-.17.45-.42.86-.77,1.23-.34.37-.77.66-1.29.88-.52.22-1.12.33-1.82.33h-1.82Z"/>
  <path class="cls-1" d="M112.47,11.97h1.04v7.72h-1.04v-7.72ZM113.29,11.97h3.64v.93h-3.64v-.93ZM113.29,15.3h3.42v.93h-3.42v-.93ZM113.29,18.76h3.74v.93h-3.74v-.93Z"/>
  <path class="cls-1" d="M85.45,31.62c-.71,0-1.31-.12-1.8-.37-.5-.25-.9-.57-1.2-.96-.3-.39-.53-.82-.67-1.29-.14-.46-.21-.91-.21-1.34v-.23c0-.47.07-.93.22-1.4.14-.47.37-.89.67-1.27.3-.38.7-.69,1.18-.92.49-.23,1.07-.35,1.75-.35s1.28.12,1.78.36c.49.24.89.58,1.17,1.01.29.43.47.94.53,1.52h-1.06c-.06-.44-.2-.8-.42-1.08-.23-.29-.51-.5-.85-.64-.34-.14-.72-.21-1.15-.21-.46,0-.86.08-1.21.24-.35.16-.63.38-.86.67-.23.29-.4.62-.52.99-.12.37-.17.78-.17,1.22s.06.81.17,1.19c.12.37.29.7.53.99.24.29.53.52.88.68.35.17.76.25,1.24.25.66,0,1.22-.17,1.67-.5.45-.33.73-.81.82-1.44h1.06c-.07.53-.25,1.01-.53,1.45-.29.44-.68.79-1.18,1.05-.5.26-1.12.39-1.84.39"/>
  <path class="cls-1" d="M89.62,31.43l2.78-7.72h1.76l2.87,7.72h-1.07l-2.59-7.05.51.25h-1.25l.54-.25-2.51,7.05h-1.04ZM91.28,29.13l.35-.93h3.33l.35.93h-4.03Z"/>
  <path class="cls-1" d="M98.44,23.67h1.04v7.76h-1.04v-7.76ZM99.27,28.75v-.91h1.72c.37,0,.67-.07.91-.22.24-.14.42-.34.55-.59.12-.25.19-.52.19-.82s-.06-.59-.19-.84c-.12-.25-.31-.44-.55-.58s-.54-.21-.91-.21h-1.72v-.91h1.53c.63,0,1.16.1,1.59.3.43.2.75.49.97.85.22.37.33.8.33,1.3v.17c0,.49-.11.93-.33,1.3-.22.37-.54.66-.97.86-.43.2-.96.3-1.59.3h-1.53Z"/>
  <rect class="cls-1" x="105.23" y="23.71" width="1.04" height="7.72"/>
  <path class="cls-1" d="M107.69,23.71h5.73v.93h-5.73v-.93ZM110.04,24.43h1.04v7h-1.04v-7Z"/>
  <path class="cls-1" d="M113.4,31.43l2.78-7.72h1.76l2.87,7.72h-1.07l-2.59-7.05.51.25h-1.25l.54-.25-2.51,7.05h-1.04ZM115.06,29.13l.35-.93h3.33l.35.93h-4.03Z"/>
  <path class="cls-1" d="M122.22,23.71h1.04v7.72h-1.04v-7.72ZM123.05,30.5h3.53v.93h-3.53v-.93Z"/>
</svg>